<svg width="20" height="18" viewBox="0 0 20 18" fill="none" xmlns="http://www.w3.org/2000/svg">
<path d="M13.4411 10L12.4249 8.98383C12.8252 7.89069 12.6174 6.98229 11.8014 6.25866C10.9854 5.53503 10.1001 5.35027 9.1455 5.70439L8.12933 4.68822C8.39107 4.51886 8.6836 4.39569 9.00693 4.31871C9.33025 4.24172 9.66128 4.20323 10 4.20323C11.0931 4.20323 12.0208 4.5843 12.7829 5.34642C13.545 6.10855 13.9261 7.03618 13.9261 8.12933C13.9261 8.46805 13.8838 8.80292 13.7991 9.13395C13.7144 9.46497 13.5951 9.75366 13.4411 10V10ZM16.4203 12.9792L15.4965 12.0554C16.251 11.5012 16.9092 10.8814 17.4711 10.1963C18.0331 9.51116 18.445 8.82217 18.7067 8.12933C17.9369 6.42032 16.7821 5.06928 15.2425 4.07621C13.7028 3.08314 12.0323 2.5866 10.2309 2.5866C9.58429 2.5866 8.92225 2.64819 8.2448 2.77136C7.56736 2.89453 7.03618 3.0408 6.65127 3.21016L5.58891 2.12471C6.12779 1.87837 6.81678 1.66282 7.65589 1.47806C8.495 1.2933 9.31486 1.20092 10.1155 1.20092C12.194 1.20092 14.1109 1.77059 15.8661 2.90993C17.6212 4.04927 18.9607 5.58122 19.8845 7.50577C19.9307 7.58276 19.9615 7.67513 19.9769 7.78291C19.9923 7.89068 20 8.00616 20 8.12933C20 8.2525 19.9923 8.37182 19.9769 8.4873C19.9615 8.60277 19.9307 8.699 19.8845 8.77598C19.4842 9.62279 18.9915 10.4003 18.4065 11.1085C17.8214 11.8168 17.1594 12.4403 16.4203 12.9792V12.9792ZM17.2517 17.6905L13.8799 14.388C13.341 14.6035 12.7329 14.7691 12.0554 14.8845C11.378 15 10.6928 15.0577 10 15.0577C7.87529 15.0577 5.92764 14.4881 4.15704 13.3487C2.38645 12.2094 1.03926 10.6774 0.115473 8.75289C0.0692841 8.66051 0.0384912 8.56428 0.0230948 8.4642C0.00769832 8.36413 0 8.2525 0 8.12933C0 8.00616 0.0115474 7.88684 0.0346421 7.77136C0.0577367 7.65589 0.0846805 7.55966 0.115473 7.48268C0.438799 6.78984 0.850654 6.11624 1.35104 5.46189C1.85142 4.80754 2.44034 4.18784 3.11778 3.60277L0.692841 1.17783C0.554272 1.03926 0.484989 0.877598 0.484989 0.692841C0.484989 0.508083 0.554272 0.34642 0.692841 0.207852C0.831409 0.069284 0.996921 0 1.18938 0C1.38183 0 1.54734 0.069284 1.68591 0.207852L18.2217 16.7436C18.3449 16.8668 18.4065 17.0169 18.4065 17.194C18.4065 17.3711 18.3449 17.5289 18.2217 17.6674C18.0985 17.8214 17.9407 17.8984 17.7483 17.8984C17.5558 17.8984 17.3903 17.8291 17.2517 17.6905V17.6905ZM4.06466 4.57275C3.495 4.98845 2.94457 5.53503 2.41339 6.21247C1.88222 6.88992 1.50115 7.52887 1.27021 8.12933C2.05543 9.83834 3.2371 11.1894 4.81524 12.1824C6.39338 13.1755 8.18322 13.6721 10.1848 13.6721C10.6928 13.6721 11.1932 13.6413 11.6859 13.5797C12.1786 13.5181 12.5481 13.4257 12.7945 13.3025L11.3164 11.8245C11.147 11.9015 10.9392 11.9592 10.6928 11.9977C10.4465 12.0362 10.2155 12.0554 10 12.0554C8.92225 12.0554 7.99846 11.6782 7.22864 10.9238C6.45881 10.1694 6.0739 9.23787 6.0739 8.12933C6.0739 7.89838 6.09315 7.66744 6.13164 7.43649C6.17013 7.20554 6.22787 6.99769 6.30485 6.81293L4.06466 4.57275Z" fill="#111315"/>
</svg>
