<svg width="20" height="14" viewBox="0 0 20 14" fill="none" xmlns="http://www.w3.org/2000/svg">
<path d="M10 10.8545C11.0931 10.8545 12.0208 10.4734 12.7829 9.71132C13.545 8.94919 13.9261 8.02155 13.9261 6.92841C13.9261 5.83526 13.545 4.90762 12.7829 4.1455C12.0208 3.38337 11.0931 3.00231 10 3.00231C8.90685 3.00231 7.97921 3.38337 7.21709 4.1455C6.45496 4.90762 6.0739 5.83526 6.0739 6.92841C6.0739 8.02155 6.45496 8.94919 7.21709 9.71132C7.97921 10.4734 8.90685 10.8545 10 10.8545ZM10 9.51501C9.27637 9.51501 8.66436 9.26482 8.16397 8.76443C7.66359 8.26405 7.41339 7.65204 7.41339 6.92841C7.41339 6.20477 7.66359 5.59276 8.16397 5.09238C8.66436 4.59199 9.27637 4.3418 10 4.3418C10.7236 4.3418 11.3356 4.59199 11.836 5.09238C12.3364 5.59276 12.5866 6.20477 12.5866 6.92841C12.5866 7.65204 12.3364 8.26405 11.836 8.76443C11.3356 9.26482 10.7236 9.51501 10 9.51501ZM10 13.8568C7.87529 13.8568 5.93918 13.2794 4.19169 12.1247C2.44419 10.97 1.09315 9.44573 0.138568 7.55196C0.0923788 7.47498 0.0577367 7.3826 0.0346421 7.27483C0.0115474 7.16705 0 7.05158 0 6.92841C0 6.80523 0.0115474 6.68976 0.0346421 6.58199C0.0577367 6.47421 0.0923788 6.38183 0.138568 6.30485C1.09315 4.41108 2.44419 2.88684 4.19169 1.7321C5.93918 0.577367 7.87529 0 10 0C12.1247 0 14.0608 0.577367 15.8083 1.7321C17.5558 2.88684 18.9069 4.41108 19.8614 6.30485C19.9076 6.38183 19.9423 6.47421 19.9654 6.58199C19.9885 6.68976 20 6.80523 20 6.92841C20 7.05158 19.9885 7.16705 19.9654 7.27483C19.9423 7.3826 19.9076 7.47498 19.8614 7.55196C18.9069 9.44573 17.5558 10.97 15.8083 12.1247C14.0608 13.2794 12.1247 13.8568 10 13.8568ZM10 12.4711C11.863 12.4711 13.5758 11.9669 15.1386 10.9584C16.7013 9.94996 17.8907 8.60662 18.7067 6.92841C17.8907 5.25019 16.7013 3.90685 15.1386 2.89838C13.5758 1.88991 11.863 1.38568 10 1.38568C8.13703 1.38568 6.42417 1.88991 4.86143 2.89838C3.29869 3.90685 2.10162 5.25019 1.27021 6.92841C2.10162 8.60662 3.29869 9.94996 4.86143 10.9584C6.42417 11.9669 8.13703 12.4711 10 12.4711Z" fill="#111315"/>
</svg>
